<svg xmlns="http://www.w3.org/2000/svg" height="150" width="165" version="1.1" xmlns:xlink="http://www.w3.org/1999/xlink" viewBox="420.731 1447.712 164.99999 150">
          <defs>
                    <style>.cls-1 {
        fill: url(#linear-gradient);
      }
      .cls-2 {
        fill: url(#b);
      }
      .cls-3 {
        fill: url(#a);
      }
      .cls-4 {
        fill: url(#linear-gradient-6);
      }
      .cls-5 {
        fill: #090e1f;
      }
      .cls-6 {
        fill: #182653;
      }
      .cls-7 {
        fill: #1c2e63;
      }
      .cls-8 {
        fill: #eccdb9;
      }
      .cls-9 {
        fill: #22366b;
      }
      .cls-10 {
        fill: #fff;
      }
      .cls-11 {
        fill: #261b33;
      }
      .cls-12 {
        fill: #d1b5a4;
      }
      .cls-13 {
        fill: #c2a898;
      }
      .cls-14 {
        fill: #11253e;
      }
      .cls-15 {
        fill: #38274b;
      }</style>
                    <linearGradient id="linear-gradient" y1=".48800001" y2=".48800001">
                              <stop stop-color="#000f2a" offset="0"/>
                              <stop stop-color="#001333" offset=".149"/>
                              <stop stop-color="#001f4b" offset=".391"/>
                              <stop stop-color="#003271" offset=".692"/>
                              <stop stop-color="#004394" offset=".924"/>
                    </linearGradient>
                    <linearGradient id="b" y1=".5" x2="1.001" y2=".5">
                              <stop stop-color="#4d00b3" offset="0"/>
                              <stop stop-color="#4611ba" offset=".136"/>
                              <stop stop-color="#323fcd" offset=".406"/>
                              <stop stop-color="#1387ec" offset=".783"/>
                              <stop stop-color="#00b4ff" offset="1"/>
                    </linearGradient>
                    <linearGradient id="a" y2="183.45872" xlink:href="#b" gradientUnits="userSpaceOnUse" x2="126.66608" gradientTransform="matrix(1.3219016 0 0 .77982827 -.75032488 -64.781089)" y1="183.45872" x1="-.019318597"/>
                    <linearGradient id="e" x1="-.0011640161" xlink:href="#linear-gradient" gradientUnits="userSpaceOnUse" x2="135.15887" gradientTransform="matrix(1.2386389 0 0 .83224918 -.74931497 -64.774969)" y1="178.63101" y2="178.63101"/>
                    <linearGradient id="d" x1="-.0011640161" xlink:href="#linear-gradient" gradientUnits="userSpaceOnUse" x2="135.15887" gradientTransform="matrix(1.2386389 0 0 .83224918 -.74931594 -43.668439)" y1="178.63101" y2="178.63101"/>
                    <linearGradient id="f" y2="183.45872" gradientUnits="userSpaceOnUse" x2="126.66608" gradientTransform="matrix(1.3219016 0 0 .77982827 -.75032595 -43.674559)" y1="183.45872" x1="-.019318597">
                              <stop stop-color="#4d00b3" offset="0"/>
                              <stop stop-color="#4611ba" offset=".136"/>
                              <stop stop-color="#323fcd" offset=".406"/>
                              <stop stop-color="#1387ec" offset=".783"/>
                              <stop stop-color="#00b4ff" offset="1"/>
                    </linearGradient>
                    <linearGradient id="c" x1="-.0011640161" gradientUnits="userSpaceOnUse" x2="135.15887" gradientTransform="matrix(1.2386389 0 0 .83224918 -.04220916 -21.885379)" y1="178.63101" y2="178.63101">
                              <stop stop-color="#000f2a" offset="0"/>
                              <stop stop-color="#001333" offset=".149"/>
                              <stop stop-color="#001f4b" offset=".391"/>
                              <stop stop-color="#003271" offset=".692"/>
                              <stop stop-color="#004394" offset=".924"/>
                    </linearGradient>
                    <linearGradient id="g" y2="183.45872" gradientUnits="userSpaceOnUse" x2="126.66608" gradientTransform="matrix(1.3219016 0 0 .77982827 -.04321917 -21.891509)" y1="183.45872" x1="-.019318597">
                              <stop stop-color="#4d00b3" offset="0"/>
                              <stop stop-color="#4611ba" offset=".136"/>
                              <stop stop-color="#323fcd" offset=".406"/>
                              <stop stop-color="#1387ec" offset=".783"/>
                              <stop stop-color="#00b4ff" offset="1"/>
                    </linearGradient>
          </defs>
          <g transform="translate(420.731,1454.786)" data-name="Group 22">
                    <g stroke-width="1.0153109" transform="matrix(.99009277 0 0 .97977425 .76789131 2.8907845)">
                              <g transform="translate(0,59.904676)">
                                        <path fill="url(#e)" d="m165.781 21.517605c-0.46229-2.38097-3.71859-2.62436-5.32542-4.06938-25.70866-14.81662-51.34858-29.78125-77.100122-44.50555-2.621547 0.219309-4.695862 2.567144-7.107787 3.566128-25.242213 14.584342-50.570763 29.045102-75.759117 43.706542-1.147359 2.37822-0.107608 5.36906-0.461552 7.96102 0.355373 2.59507-0.701237 5.60537 0.4986452 7.97 26.912469 15.63794 53.879231 31.24258 80.897035 46.70073 3.792407 1.00564 6.700724-2.61174 9.957786-3.96004 24.635242-14.26942 49.356172-28.41641 73.937982-42.76219 1.14736-2.37822 0.10761-5.36906 0.46155-7.96102 0.00071-2.21072-0.001-4.45589 0.001-6.64624z"/>
                                        <path fill="url(#a)" d="m0.87314864 19.907345c27.237081-15.679175 54.405821-31.505661 81.685543-47.092929 2.549594 0.18848 4.555614 2.48672 6.894762 3.45505 25.281456 14.667027 50.665976 29.18826 75.883156 43.946198 1.67987 2.141516-1.61929 3.382603-3.06063 4.185882-25.97395 14.946112-51.86429 30.05751-77.890512 44.900287-3.709087 1.014366-6.559693-2.506447-9.737702-3.832941-24.712241-14.321904-49.526803-28.498879-74.17517-42.911256-0.7687484-0.757355-0.5581699-2.153512 0.4005523-2.650291z"/>
                              </g>
                              <g transform="translate(9.9459123e-7,38.798148)">
                                        <path fill="url(#d)" d="m165.781 21.517605c-0.46229-2.38097-3.71859-2.62436-5.32542-4.06938-25.70866-14.81662-51.34858-29.78125-77.100122-44.50555-2.621547 0.219309-4.695862 2.567144-7.107787 3.566128-25.242213 14.584342-50.570763 29.045102-75.759117 43.706542-1.147359 2.37822-0.107608 5.36906-0.461552 7.96102 0.355373 2.59507-0.701237 5.60537 0.4986452 7.97 26.912469 15.63794 53.879231 31.24258 80.897035 46.70073 3.792407 1.00564 6.700724-2.61174 9.957786-3.96004 24.635242-14.26942 49.356172-28.41641 73.937982-42.76219 1.14736-2.37822 0.10761-5.36906 0.46155-7.96102 0.00071-2.21072-0.001-4.45589 0.001-6.64624z"/>
                                        <path fill="url(#f)" d="m0.87314864 19.907345c27.237081-15.679175 54.405821-31.505661 81.685543-47.092929 2.549594 0.18848 4.555614 2.48672 6.894762 3.45505 25.281456 14.667027 50.665976 29.18826 75.883156 43.946198 1.67987 2.141516-1.61929 3.382603-3.06063 4.185882-25.97395 14.946112-51.86429 30.05751-77.890512 44.900287-3.709087 1.014366-6.559693-2.506447-9.737702-3.832941-24.712241-14.321904-49.526803-28.498879-74.17517-42.911256-0.7687484-0.757355-0.5581699-2.153512 0.4005523-2.650291z"/>
                              </g>
                              <g transform="translate(-.70710578 17.015094)">
                                        <path fill="url(#c)" d="m165.781 21.517605c-0.46229-2.38097-3.71859-2.62436-5.32542-4.06938-25.70866-14.81662-51.34858-29.78125-77.100122-44.50555-2.621547 0.219309-4.695862 2.567144-7.107787 3.566128-25.242213 14.584342-50.570763 29.045102-75.759117 43.706542-1.147359 2.37822-0.107608 5.36906-0.461552 7.96102 0.355373 2.59507-0.701237 5.60537 0.4986452 7.97 26.912469 15.63794 53.879231 31.24258 80.897035 46.70073 3.792407 1.00564 6.700724-2.61174 9.957786-3.96004 24.635242-14.26942 49.356172-28.41641 73.937982-42.76219 1.14736-2.37822 0.10761-5.36906 0.46155-7.96102 0.00071-2.21072-0.001-4.45589 0.001-6.64624z"/>
                                        <path fill="url(#g)" d="m0.87314864 19.907345c27.237081-15.679175 54.405821-31.505661 81.685543-47.092929 2.549594 0.18848 4.555614 2.48672 6.894762 3.45505 25.281456 14.667027 50.665976 29.18826 75.883156 43.946198 1.67987 2.141516-1.61929 3.382603-3.06063 4.185882-25.97395 14.946112-51.86429 30.05751-77.890512 44.900287-3.709087 1.014366-6.559693-2.506447-9.737702-3.832941-24.712241-14.321904-49.526803-28.498879-74.17517-42.911256-0.7687484-0.757355-0.5581699-2.153512 0.4005523-2.650291z"/>
                              </g>
                    </g>
          </g>
</svg>
