<?xml version="1.0" encoding="UTF-8" standalone="no"?>
<svg xmlns:svg="http://www.w3.org/2000/svg"
   xmlns="http://www.w3.org/2000/svg"
   xmlns:xlink="http://www.w3.org/1999/xlink"
   version="1.1"
   viewBox="1062.966 1406.3 422.201 223.602">
  <defs>
    <linearGradient id="linearGradient1520">
      <stop offset="0" style="stop-color:#00d3ff;stop-opacity:1" />
      <stop offset="1" style="stop-color:#02004a;stop-opacity:1" />
    </linearGradient>
    <linearGradient
       gradientUnits="userSpaceOnUse"
       y2="111.79862"
       x2="422.16993"
       y1="111.79862"
       x1="-0.031339061"
       id="linearGradient1522"
       xlink:href="#linearGradient1520" />
    <linearGradient
       gradientUnits="userSpaceOnUse"
       y2="284.02512"
       x2="-238.19572"
       y1="124.092"
       x1="186.86099"
       id="linearGradient1535"
       xlink:href="#linearGradient1520" />
  </defs>
  <style>
    .infinite-woonkly-bullet {
      fill-opacity:1;
      fill:url(#linearGradient1535);
      opacity:1
    }
  </style>
  <path class="infinite-woonkly-bullet" transform="translate(1062.997 1406.302)" d="M303.342,135.8c-36.289,1.171-70.237-24-70.237-24s34.533-46.239,79.017-50.922c38.63-4.1,60.287,12.292,62.043,25.754,1.171,12.877-14.047,46.825-70.823,49.166m-171.5,34.533c-56.775,18.145-80.773-8.78-84.87-21.656s4.1-33.363,46.825-45.069c42.142-11.706,93.064,20.486,93.064,20.486s-21.071,35.119-55.019,46.24M311.536.011C219.057,1.767,198.571,90.734,198.571,90.734c-32.777-31.607-64.969-48-111.794-43.313-46.239,4.682-83.7,48-86.626,80.773S29.417,223.6,103.751,223.6s105.356-77.846,105.356-77.846,35.7,46.24,100.673,44.484c84.285-1.756,108.282-57.36,111.794-84.87C426.257,72.59,404.6-1.159,311.536.011"/>
</svg>
