<svg xmlns="http://www.w3.org/2000/svg" xmlns:xlink="http://www.w3.org/1999/xlink" viewBox="0 0 547.412 509.877">
  <defs>
    <style>
      .cls-1, .cls-2 {
        fill: rgba(49,118,164,0.16);
      }

      .cls-2 {
        opacity: 0.48;
      }

      .cls-3 {
        fill: #02cdf9;
      }

      .cls-3, .cls-5 {
        font-size: 21px;
        font-family: FuturaBT-Heavy, Futura Hv BT;
        font-weight: 800;
      }

      .cls-4 {
        font-size: 12px;
        font-family: FuturaBT-Book, Futura Bk BT;
        font-weight: 400;
      }

      .cls-5, .cls-9 {
        fill: #fff;
      }

      .cls-6 {
        fill: rgba(49,118,164,0.08);
        stroke: rgba(0,211,255,0.05);
      }

      .cls-10, .cls-7 {
        fill: rgba(49,118,164,0.19);
      }

      .cls-7 {
        stroke: #00d3ff;
      }

      .cls-8 {
        fill: url(#linear-gradient);
      }

      .cls-11, .cls-13 {
        fill: none;
      }

      .cls-11 {
        stroke: #01c8f5;
      }

      .cls-12, .cls-14 {
        stroke: none;
      }

      .cls-14 {
        fill: #00d3ff;
      }

      .cls-15 {
        filter: url(#Ellipse_62-2);
      }

      .cls-16 {
        filter: url(#Ellipse_59-2);
      }

      .cls-17 {
        filter: url(#Ellipse_58-5);
      }

      .cls-18 {
        filter: url(#Ellipse_57-5);
      }

      .cls-19 {
        filter: url(#Ellipse_58-4);
      }

      .cls-20 {
        filter: url(#Ellipse_57-4);
      }

      .cls-21 {
        filter: url(#Ellipse_58-3);
      }

      .cls-22 {
        filter: url(#Ellipse_57-3);
      }

      .cls-23 {
        filter: url(#Ellipse_58-2);
      }

      .cls-24 {
        filter: url(#Ellipse_57-2);
      }

      .cls-25 {
        filter: url(#Ellipse_58);
      }

      .cls-26 {
        filter: url(#Ellipse_57);
      }

      .cls-27 {
        filter: url(#Ellipse_62);
      }

      .cls-28 {
        filter: url(#Ellipse_59);
      }
    </style>
    <filter id="Ellipse_59" x="203.626" y="160.169" width="132.075" height="132.075" filterUnits="userSpaceOnUse">
      <feOffset dy="3" input="SourceAlpha"/>
      <feGaussianBlur stdDeviation="3" result="blur"/>
      <feFlood flood-opacity="0.941"/>
      <feComposite operator="in" in2="blur"/>
      <feComposite in="SourceGraphic"/>
    </filter>
    <linearGradient id="linear-gradient" x1="1.125" y1="0.15" x2="0.5" y2="1" gradientUnits="objectBoundingBox">
      <stop offset="0" stop-color="#02004a"/>
      <stop offset="1" stop-color="#00d3ff"/>
    </linearGradient>
    <filter id="Ellipse_62" x="119.476" y="103.02" width="286.375" height="286.375" filterUnits="userSpaceOnUse">
      <feOffset dx="-7" dy="23" input="SourceAlpha"/>
      <feGaussianBlur stdDeviation="36" result="blur-2"/>
      <feFlood flood-color="#00b1ff"/>
      <feComposite operator="in" in2="blur-2"/>
      <feComposite in="SourceGraphic"/>
    </filter>
    <filter id="Ellipse_57" x="209.638" y="0" width="245.451" height="245.451" filterUnits="userSpaceOnUse">
      <feOffset dx="-7" dy="23" input="SourceAlpha"/>
      <feGaussianBlur stdDeviation="36" result="blur-3"/>
      <feFlood flood-color="#00dcff" flood-opacity="0.42"/>
      <feComposite operator="in" in2="blur-3"/>
      <feComposite in="SourceGraphic"/>
    </filter>
    <filter id="Ellipse_58" x="221.264" y="11.626" width="222.2" height="222.2" filterUnits="userSpaceOnUse">
      <feOffset dx="-7" dy="23" input="SourceAlpha"/>
      <feGaussianBlur stdDeviation="36" result="blur-4"/>
      <feFlood flood-color="#00dcff" flood-opacity="0.42"/>
      <feComposite operator="in" in2="blur-4"/>
      <feComposite in="SourceGraphic"/>
    </filter>
    <filter id="Ellipse_57-2" x="0" y="146.983" width="243.827" height="243.827" filterUnits="userSpaceOnUse">
      <feOffset dx="-7" dy="23" input="SourceAlpha"/>
      <feGaussianBlur stdDeviation="36" result="blur-5"/>
      <feFlood flood-color="#00dcff" flood-opacity="0.42"/>
      <feComposite operator="in" in2="blur-5"/>
      <feComposite in="SourceGraphic"/>
    </filter>
    <filter id="Ellipse_58-2" x="10.984" y="157.967" width="221.858" height="221.858" filterUnits="userSpaceOnUse">
      <feOffset dx="-7" dy="23" input="SourceAlpha"/>
      <feGaussianBlur stdDeviation="36" result="blur-6"/>
      <feFlood flood-color="#00dcff" flood-opacity="0.42"/>
      <feComposite operator="in" in2="blur-6"/>
      <feComposite in="SourceGraphic"/>
    </filter>
    <filter id="Ellipse_57-3" x="278.915" y="185.458" width="243.827" height="243.827" filterUnits="userSpaceOnUse">
      <feOffset dx="-7" dy="23" input="SourceAlpha"/>
      <feGaussianBlur stdDeviation="36" result="blur-7"/>
      <feFlood flood-color="#00dcff" flood-opacity="0.42"/>
      <feComposite operator="in" in2="blur-7"/>
      <feComposite in="SourceGraphic"/>
    </filter>
    <filter id="Ellipse_58-3" x="289.9" y="196.442" width="221.858" height="221.858" filterUnits="userSpaceOnUse">
      <feOffset dx="-7" dy="23" input="SourceAlpha"/>
      <feGaussianBlur stdDeviation="36" result="blur-8"/>
      <feFlood flood-color="#00dcff" flood-opacity="0.42"/>
      <feComposite operator="in" in2="blur-8"/>
      <feComposite in="SourceGraphic"/>
    </filter>
    <filter id="Ellipse_57-4" x="133.68" y="267.549" width="242.328" height="242.328" filterUnits="userSpaceOnUse">
      <feOffset dx="-7" dy="23" input="SourceAlpha"/>
      <feGaussianBlur stdDeviation="36" result="blur-9"/>
      <feFlood flood-color="#00dcff" flood-opacity="0.42"/>
      <feComposite operator="in" in2="blur-9"/>
      <feComposite in="SourceGraphic"/>
    </filter>
    <filter id="Ellipse_58-4" x="144.073" y="277.942" width="221.543" height="221.542" filterUnits="userSpaceOnUse">
      <feOffset dx="-7" dy="23" input="SourceAlpha"/>
      <feGaussianBlur stdDeviation="36" result="blur-10"/>
      <feFlood flood-color="#00dcff" flood-opacity="0.42"/>
      <feComposite operator="in" in2="blur-10"/>
      <feComposite in="SourceGraphic"/>
    </filter>
    <filter id="Ellipse_57-5" x="61.703" y="19.269" width="237.243" height="237.243" filterUnits="userSpaceOnUse">
      <feOffset dx="-7" dy="23" input="SourceAlpha"/>
      <feGaussianBlur stdDeviation="36" result="blur-11"/>
      <feFlood flood-color="#00dcff" flood-opacity="0.42"/>
      <feComposite operator="in" in2="blur-11"/>
      <feComposite in="SourceGraphic"/>
    </filter>
    <filter id="Ellipse_58-5" x="70.089" y="27.654" width="220.472" height="220.472" filterUnits="userSpaceOnUse">
      <feOffset dx="-7" dy="23" input="SourceAlpha"/>
      <feGaussianBlur stdDeviation="36" result="blur-12"/>
      <feFlood flood-color="#00dcff" flood-opacity="0.42"/>
      <feComposite operator="in" in2="blur-12"/>
      <feComposite in="SourceGraphic"/>
    </filter>
    <filter id="Ellipse_59-2" x="203.626" y="160.169" width="132.075" height="132.075" filterUnits="userSpaceOnUse">
      <feOffset dy="3" input="SourceAlpha"/>
      <feGaussianBlur stdDeviation="3" result="blur-13"/>
      <feFlood flood-opacity="0.941"/>
      <feComposite operator="in" in2="blur-13"/>
      <feComposite in="SourceGraphic"/>
    </filter>
    <filter id="Ellipse_62-2" x="119.476" y="103.02" width="286.375" height="286.375" filterUnits="userSpaceOnUse">
      <feOffset dx="-7" dy="23" input="SourceAlpha"/>
      <feGaussianBlur stdDeviation="36" result="blur-14"/>
      <feFlood flood-color="#00b1ff"/>
      <feComposite operator="in" in2="blur-14"/>
      <feComposite in="SourceGraphic"/>
    </filter>
  </defs>
  <g id="Group_326" data-name="Group 326" transform="translate(-1554.575 -4370.393)">
    <path id="Path_131" data-name="Path 131" class="cls-1" d="M140.83,0A140.83,140.83,0,1,1,0,140.83,140.83,140.83,0,0,1,140.83,0Z" transform="translate(1683.408 4452.77)"/>
    <ellipse id="Ellipse_60" data-name="Ellipse 60" class="cls-2" cx="85.57" cy="85.57" rx="85.57" ry="85.57" transform="translate(1738.669 4508.03)"/>
    <path id="Path_132" data-name="Path 132" class="cls-1" d="M119.158,0A119.158,119.158,0,1,1,0,119.158,119.158,119.158,0,0,1,119.158,0Z" transform="translate(1705.081 4474.442)"/>
    <path id="Path_131-2" data-name="Path 131" class="cls-1" d="M140.83,0A140.83,140.83,0,1,1,0,140.83,140.83,140.83,0,0,1,140.83,0Z" transform="translate(1683.408 4452.77)"/>
    <ellipse id="Ellipse_60-2" data-name="Ellipse 60" class="cls-2" cx="85.57" cy="85.57" rx="85.57" ry="85.57" transform="translate(1738.669 4508.03)"/>
    <path id="Path_132-2" data-name="Path 132" class="cls-1" d="M119.158,0A119.158,119.158,0,1,1,0,119.158,119.158,119.158,0,0,1,119.158,0Z" transform="translate(1705.081 4474.442)"/>
    <text id="_5_Legal_y_fiscal" data-name="5% (Legal y fiscal" class="cls-3" transform="translate(1680.958 4425)"><tspan x="0" y="0">5%</tspan><tspan class="cls-4"><tspan x="0" y="17">(Legal y fiscal</tspan></tspan></text>
    <text id="_40_Marketing_" data-name="40% (Marketing)" class="cls-5" transform="translate(1905.91 4422.255)"><tspan x="0" y="0">40%</tspan><tspan class="cls-4"><tspan x="0" y="17">(Marketing)</tspan></tspan></text>
    <text id="_10_Desarrollo_Apps_" data-name="10% (Desarrollo Apps)" class="cls-3" transform="translate(2009.987 4672.547)"><tspan x="0" y="0">10%</tspan><tspan class="cls-4"><tspan x="0" y="17">(Desarrollo Apps)</tspan></tspan></text>
    <text id="_15_Desarrollo_Web_" data-name="15% (Desarrollo Web)" class="cls-5" transform="translate(1796.165 4799.118)"><tspan x="0" y="0">15%</tspan><tspan class="cls-4"><tspan x="0" y="17">(Desarrollo Web)</tspan></tspan></text>
    <text id="_30_Tecnologí_de_tokens_" data-name="30% (Tecnologí de tokens)" class="cls-5" transform="translate(1597.555 4630.301)"><tspan x="0" y="0">30%</tspan><tspan class="cls-4"><tspan x="0" y="17">(Tecnologí</tspan><tspan x="0" y="32">de tokens)</tspan></tspan></text>
    <g class="cls-28" transform="matrix(1, 0, 0, 1, 1554.57, 4370.39)">
      <g id="Ellipse_59-3" data-name="Ellipse 59" class="cls-6" transform="translate(212.63 166.17)">
        <ellipse class="cls-12" cx="57.038" cy="57.038" rx="57.038" ry="57.038"/>
        <ellipse class="cls-13" cx="57.038" cy="57.038" rx="56.538" ry="56.538"/>
      </g>
    </g>
    <g id="Ellipse_61" data-name="Ellipse 61" class="cls-7" transform="translate(1777.169 4546.53)">
      <ellipse class="cls-12" cx="47.07" cy="47.07" rx="47.07" ry="47.07"/>
      <ellipse class="cls-13" cx="47.07" cy="47.07" rx="46.57" ry="46.57"/>
    </g>
    <g class="cls-27" transform="matrix(1, 0, 0, 1, 1554.57, 4370.39)">
      <ellipse id="Ellipse_62-3" data-name="Ellipse 62" class="cls-8" cx="35.188" cy="35.188" rx="35.188" ry="35.188" transform="translate(234.48 188.02)"/>
    </g>
    <path id="Path_133" data-name="Path 133" class="cls-9" d="M42.34,2.525A11.733,11.733,0,0,0,29,1.746c-.9.5-3.859,1.92-7.119,10.058C17.444,8.6,13.724,6.785,7.605,7.925c-9.439,2-7.6,9.3-7.079,10.978,1,3.739,5.859,10.478,11.878,9.978a13.144,13.144,0,0,0,11.118-8.259,17.785,17.785,0,0,0-5.2-3.419c-2.7,3.359-4.359,4.1-6.019,4.7-2.66.86-6.259.3-6.2-3.939.16-4.019,7.9-3.239,11.738-1.44a27.475,27.475,0,0,1,5.8,3.339c1.14.76,2.34,1.46,2.34,1.46,7.079,4.059,16.177,1.58,19.277-2.46C49.3,13.8,46.639,6.025,42.34,2.525ZM38.681,14.983c-1.7,1.46-5.979,3.14-10.878-1a8.425,8.425,0,0,1,7.5-5C40.36,9.264,41.2,12.944,38.681,14.983Z" transform="translate(1800.654 4579.353)"/>
    <g id="Group_70" data-name="Group 70" transform="translate(1867.82 4444)">
      <g class="cls-26" transform="matrix(1, 0, 0, 1, -313.24, -73.61)">
        <ellipse id="Ellipse_57-6" data-name="Ellipse 57" class="cls-8" cx="14.726" cy="14.726" rx="14.726" ry="14.726" transform="translate(324.64 85)"/>
      </g>
      <g class="cls-25" transform="matrix(1, 0, 0, 1, -313.24, -73.61)">
        <circle id="Ellipse_58-6" data-name="Ellipse 58" class="cls-9" cx="3.1" cy="3.1" r="3.1" transform="translate(336.26 96.63)"/>
      </g>
    </g>
    <g id="Group_73" data-name="Group 73" transform="translate(1658.81 4591.611)">
      <g class="cls-24" transform="matrix(1, 0, 0, 1, -104.24, -221.22)">
        <ellipse id="Ellipse_57-7" data-name="Ellipse 57" class="cls-8" cx="13.913" cy="13.913" rx="13.913" ry="13.913" transform="translate(115 231.98)"/>
      </g>
      <g class="cls-23" transform="matrix(1, 0, 0, 1, -104.24, -221.22)">
        <ellipse id="Ellipse_58-7" data-name="Ellipse 58" class="cls-9" cx="2.929" cy="2.929" rx="2.929" ry="2.929" transform="translate(125.98 242.97)"/>
      </g>
    </g>
    <g id="Group_67" data-name="Group 67" transform="translate(1937.726 4630.086)">
      <g id="Path_225" data-name="Path 225" class="cls-10" transform="translate(3.699 3.699)">
        <path class="cls-12" d="M0,20.979Z"/>
        <path class="cls-14" d="M 0 24.32319068908691 L 0 17.6339282989502 L 0 24.32319068908691 Z"/>
      </g>
      <g class="cls-22" transform="matrix(1, 0, 0, 1, -383.15, -259.69)">
        <ellipse id="Ellipse_57-8" data-name="Ellipse 57" class="cls-8" cx="13.913" cy="13.913" rx="13.913" ry="13.913" transform="translate(393.92 270.46)"/>
      </g>
      <g class="cls-21" transform="matrix(1, 0, 0, 1, -383.15, -259.69)">
        <ellipse id="Ellipse_58-8" data-name="Ellipse 58" class="cls-9" cx="2.929" cy="2.929" rx="2.929" ry="2.929" transform="translate(404.9 281.44)"/>
      </g>
    </g>
    <g id="Group_69" data-name="Group 69" transform="translate(1793.071 4712.758)">
      <g class="cls-20" transform="matrix(1, 0, 0, 1, -238.5, -342.36)">
        <ellipse id="Ellipse_57-9" data-name="Ellipse 57" class="cls-8" cx="13.164" cy="13.164" rx="13.164" ry="13.164" transform="translate(248.68 352.55)"/>
      </g>
      <g class="cls-19" transform="matrix(1, 0, 0, 1, -238.5, -342.36)">
        <ellipse id="Ellipse_58-9" data-name="Ellipse 58" class="cls-9" cx="2.771" cy="2.771" rx="2.771" ry="2.771" transform="translate(259.07 362.94)"/>
      </g>
    </g>
    <g id="Group_72" data-name="Group 72" transform="translate(1723.061 4466.444)">
      <g class="cls-18" transform="matrix(1, 0, 0, 1, -168.49, -96.05)">
        <ellipse id="Ellipse_57-10" data-name="Ellipse 57" class="cls-8" cx="10.621" cy="10.621" rx="10.621" ry="10.621" transform="translate(176.7 104.27)"/>
      </g>
      <g class="cls-17" transform="matrix(1, 0, 0, 1, -168.49, -96.05)">
        <ellipse id="Ellipse_58-10" data-name="Ellipse 58" class="cls-9" cx="2.236" cy="2.236" rx="2.236" ry="2.236" transform="translate(185.09 112.65)"/>
      </g>
    </g>
    <line id="Line_20" data-name="Line 20" class="cls-11" y1="8" x2="60" transform="translate(1714.5 4602.5)"/>
    <line id="Line_16" data-name="Line 16" class="cls-11" x2="36" y2="47" transform="translate(1753.5 4500.5)"/>
    <line id="Line_17" data-name="Line 17" class="cls-11" x1="0.69" y2="54.528" transform="translate(1817.809 4650.461)"/>
    <line id="Line_19" data-name="Line 19" class="cls-11" x1="27.99" y2="50.382" transform="translate(1853.428 4496.434)"/>
    <line id="Line_14" data-name="Line 14" class="cls-11" x1="63" y1="32" transform="translate(1871.5 4618.5)"/>
    <g class="cls-16" transform="matrix(1, 0, 0, 1, 1554.57, 4370.39)">
      <g id="Ellipse_59-4" data-name="Ellipse 59" class="cls-6" transform="translate(212.63 166.17)">
        <ellipse class="cls-12" cx="57.038" cy="57.038" rx="57.038" ry="57.038"/>
        <ellipse class="cls-13" cx="57.038" cy="57.038" rx="56.538" ry="56.538"/>
      </g>
    </g>
    <g id="Ellipse_61-2" data-name="Ellipse 61" class="cls-7" transform="translate(1777.169 4546.53)">
      <ellipse class="cls-12" cx="47.07" cy="47.07" rx="47.07" ry="47.07"/>
      <ellipse class="cls-13" cx="47.07" cy="47.07" rx="46.57" ry="46.57"/>
    </g>
    <g class="cls-15" transform="matrix(1, 0, 0, 1, 1554.57, 4370.39)">
      <ellipse id="Ellipse_62-4" data-name="Ellipse 62" class="cls-8" cx="35.188" cy="35.188" rx="35.188" ry="35.188" transform="translate(234.48 188.02)"/>
    </g>
    <path id="Path_133-2" data-name="Path 133" class="cls-9" d="M42.34,2.525A11.733,11.733,0,0,0,29,1.746c-.9.5-3.859,1.92-7.119,10.058C17.444,8.6,13.724,6.785,7.605,7.925c-9.439,2-7.6,9.3-7.079,10.978,1,3.739,5.859,10.478,11.878,9.978a13.144,13.144,0,0,0,11.118-8.259,17.785,17.785,0,0,0-5.2-3.419c-2.7,3.359-4.359,4.1-6.019,4.7-2.66.86-6.259.3-6.2-3.939.16-4.019,7.9-3.239,11.738-1.44a27.475,27.475,0,0,1,5.8,3.339c1.14.76,2.34,1.46,2.34,1.46,7.079,4.059,16.177,1.58,19.277-2.46C49.3,13.8,46.639,6.025,42.34,2.525ZM38.681,14.983c-1.7,1.46-5.979,3.14-10.878-1a8.425,8.425,0,0,1,7.5-5C40.36,9.264,41.2,12.944,38.681,14.983Z" transform="translate(1800.654 4579.353)"/>
    <line id="Line_20-2" data-name="Line 20" class="cls-11" y1="8" x2="60" transform="translate(1714.5 4602.5)"/>
    <line id="Line_16-2" data-name="Line 16" class="cls-11" x2="36" y2="47" transform="translate(1753.5 4500.5)"/>
    <line id="Line_17-2" data-name="Line 17" class="cls-11" x1="0.69" y2="54.528" transform="translate(1817.809 4650.461)"/>
    <line id="Line_19-2" data-name="Line 19" class="cls-11" x1="27.99" y2="50.382" transform="translate(1853.428 4496.434)"/>
    <line id="Line_14-2" data-name="Line 14" class="cls-11" x1="63" y1="32" transform="translate(1871.5 4618.5)"/>
  </g>
</svg>